<?xml version="1.0" standalone="no"?>
<!DOCTYPE svg PUBLIC "-//W3C//DTD SVG 20010904//EN"
 "http://www.w3.org/TR/2001/REC-SVG-20010904/DTD/svg10.dtd">
<svg version="1.0" xmlns="http://www.w3.org/2000/svg"
 width="570.000000pt" height="570.000000pt" viewBox="0 0 570.000000 570.000000"
 preserveAspectRatio="xMidYMid meet">

<g transform="translate(0.000000,570.000000) scale(0.100000,-0.100000)"
fill="#ffffff" stroke="none">
<path d="M2595 5694 c-16 -2 -66 -9 -110 -15 -525 -70 -1014 -290 -1441 -647
-177 -148 -398 -386 -511 -552 -51 -74 -99 -142 -106 -150 -38 -42 -183 -336
-239 -487 -11 -32 -24 -60 -29 -63 -20 -14 -86 -261 -114 -430 -35 -214 -44
-334 -40 -530 4 -217 13 -308 51 -520 27 -147 88 -380 103 -390 4 -3 25 -50
45 -105 40 -110 186 -410 214 -441 10 -10 44 -59 76 -109 72 -111 171 -243
201 -270 13 -11 63 -64 113 -118 81 -89 302 -281 392 -341 190 -127 466 -274
600 -319 25 -8 89 -31 142 -51 175 -63 397 -114 618 -141 115 -15 484 -20 528
-9 l24 7 -4 306 c-4 282 -6 311 -26 371 -66 197 -234 364 -383 378 -27 2 -77
-1 -112 -8 -89 -18 -141 -14 -202 14 -108 49 -156 125 -171 268 -3 38 -9 68
-13 68 -3 0 -40 -6 -81 -14 -165 -32 -337 19 -439 129 -68 74 -86 123 -86 235
0 84 3 101 27 146 15 29 34 58 42 66 11 12 12 24 3 67 -13 66 3 141 43 204 33
52 56 70 136 102 53 22 57 26 74 75 10 29 33 68 51 86 41 40 130 74 197 74 44
0 50 3 85 44 20 24 63 59 94 77 51 30 68 34 149 37 110 5 167 -15 260 -94 l61
-52 83 58 c114 82 147 93 262 88 115 -4 151 -20 233 -102 59 -59 61 -60 115
-61 66 0 156 -42 201 -92 30 -35 59 -94 59 -122 0 -10 19 -25 49 -39 66 -30
147 -105 177 -163 30 -60 41 -152 25 -214 -11 -45 -11 -48 20 -83 51 -58 73
-117 74 -197 0 -61 -5 -80 -35 -140 -19 -39 -33 -74 -31 -80 30 -85 18 -188
-32 -262 -42 -61 -68 -79 -163 -112 l-79 -27 -5 -85 c-9 -127 -51 -191 -162
-244 -82 -40 -147 -50 -208 -34 -25 6 -66 13 -92 16 l-48 5 0 -337 0 -336 48
6 c157 22 332 70 522 142 415 158 738 368 1054 688 150 152 219 235 316 380
29 44 64 93 78 109 29 36 162 308 209 431 19 50 43 108 53 130 10 22 34 97 54
165 109 385 131 846 60 1275 -24 145 -95 410 -113 425 -3 3 -26 55 -50 115
-60 151 -165 365 -204 417 -18 24 -73 101 -122 172 -130 188 -356 431 -525
565 -132 105 -331 240 -440 298 -345 186 -555 260 -921 324 -102 17 -171 22
-389 24 -146 2 -278 1 -295 -1z m430 -164 c61 -6 135 -15 165 -21 30 -5 79
-14 108 -20 126 -22 172 -33 257 -59 50 -15 117 -35 149 -45 103 -29 273 -110
510 -245 152 -86 307 -205 441 -338 77 -76 150 -152 163 -168 12 -16 64 -78
115 -139 125 -148 187 -248 298 -475 33 -69 65 -136 71 -150 6 -14 17 -37 24
-52 8 -14 14 -35 14 -45 0 -10 4 -23 9 -28 28 -30 118 -384 132 -522 6 -59 13
-186 16 -280 5 -158 3 -173 -12 -173 -31 0 -219 41 -280 61 -122 41 -280 103
-283 111 -2 4 -10 8 -18 8 -8 0 -46 20 -86 45 -40 25 -76 45 -81 45 -4 0 -63
37 -130 82 -67 45 -134 89 -149 98 -40 22 -243 178 -302 231 -28 25 -76 65
-106 87 -171 130 -449 404 -601 593 -26 31 -58 70 -73 85 -34 36 -128 177
-152 227 l-18 37 -365 0 -366 -1 -48 -77 c-53 -85 -75 -116 -192 -257 -44 -54
-90 -111 -101 -129 -51 -73 -571 -559 -644 -600 -10 -6 -60 -43 -112 -81 -51
-39 -115 -86 -143 -104 -27 -19 -77 -53 -110 -76 -158 -113 -392 -236 -558
-294 -81 -28 -240 -70 -329 -86 l-38 -7 0 158 c0 253 42 529 105 699 18 50 41
114 50 143 10 29 51 119 92 200 162 318 216 400 419 642 72 86 256 270 321
321 204 161 328 246 443 304 174 87 270 128 300 127 14 0 52 8 85 18 33 10 95
28 137 41 42 12 75 25 73 29 -9 15 201 54 405 75 160 16 258 17 395 5z"/>
</g>
</svg>
