<?xml version="1.0" standalone="no"?>
<!DOCTYPE svg PUBLIC "-//W3C//DTD SVG 20010904//EN"
 "http://www.w3.org/TR/2001/REC-SVG-20010904/DTD/svg10.dtd">
<svg version="1.0" xmlns="http://www.w3.org/2000/svg"
 width="570.000000pt" height="570.000000pt" viewBox="0 0 570.000000 570.000000"
 preserveAspectRatio="xMidYMid meet">

<g transform="translate(0.000000,570.000000) scale(0.100000,-0.100000)"
fill="#403829" stroke="none">
<path d="M2595 5694 c-16 -2 -66 -9 -110 -15 -525 -70 -1014 -290 -1441 -647
-177 -148 -398 -386 -511 -552 -51 -74 -99 -142 -106 -150 -38 -42 -183 -336
-239 -487 -11 -32 -24 -60 -29 -63 -20 -14 -86 -261 -114 -430 -35 -214 -44
-334 -40 -530 4 -217 13 -308 51 -520 27 -147 88 -380 103 -390 4 -3 25 -50
45 -105 40 -110 186 -410 214 -441 10 -10 44 -59 76 -109 72 -111 171 -243
201 -270 13 -11 63 -64 113 -118 81 -89 302 -281 392 -341 190 -127 466 -274
600 -319 25 -8 90 -32 144 -51 100 -37 364 -104 486 -124 160 -27 285 -34 501
-29 275 6 408 27 745 116 118 31 474 191 611 274 237 144 401 274 597 472 150
152 219 235 316 380 29 44 64 93 78 109 29 36 162 308 209 431 19 50 43 108
53 130 10 22 34 97 54 165 109 385 131 846 60 1275 -24 145 -95 410 -113 425
-3 3 -26 55 -50 115 -60 151 -165 365 -204 417 -18 24 -73 101 -122 172 -130
188 -356 431 -525 565 -132 105 -331 240 -440 298 -345 186 -555 260 -921 324
-102 17 -171 22 -389 24 -146 2 -278 1 -295 -1z m430 -164 c61 -6 135 -15 165
-21 30 -5 79 -14 108 -20 28 -5 78 -14 110 -20 59 -12 243 -65 346 -101 71
-24 286 -124 286 -133 0 -3 -161 -4 -357 -3 -355 3 -358 3 -394 -19 -48 -30
-73 -78 -67 -131 l4 -42 -215 0 c-185 0 -217 -2 -233 -17 -22 -20 -23 -46 -1
-64 17 -15 -46 -14 1133 -18 l605 -2 37 -36 c21 -21 38 -40 38 -44 0 -4 -131
-8 -290 -9 -160 0 -301 -5 -313 -10 -36 -14 -85 -67 -92 -100 -12 -53 2 -95
45 -134 21 -19 56 -40 77 -45 23 -6 204 -11 455 -11 l418 -1 30 -37 c16 -20
30 -40 30 -44 0 -5 -89 -8 -197 -8 -259 0 -315 -16 -349 -97 -8 -18 -14 -51
-14 -73 l0 -40 -144 0 c-118 0 -147 -3 -160 -16 -33 -32 -14 -63 45 -75 24 -4
268 -8 541 -9 l498 0 25 -50 c14 -27 25 -52 25 -55 0 -3 -382 -5 -849 -5
l-849 0 -58 73 c-32 39 -71 86 -87 102 -35 37 -129 176 -153 228 l-18 37 -365
0 -366 -1 -44 -72 c-52 -83 -90 -134 -199 -267 l-78 -95 -832 -3 c-474 -1
-832 2 -832 7 0 5 11 29 26 54 l25 46 302 3 c339 3 340 4 394 80 34 51 28 102
-18 153 -60 66 -73 69 -281 73 -104 2 -188 6 -188 9 0 3 14 23 31 44 l31 39
648 0 c707 0 680 -2 680 55 0 37 -28 45 -168 45 l-129 0 4 48 c4 38 0 54 -19
82 -46 68 -55 70 -411 70 -181 0 -317 4 -315 9 2 5 24 25 51 45 l47 36 620 0
c607 0 620 0 640 20 25 25 25 42 2 63 -17 15 -74 17 -573 19 l-554 3 60 45 60
45 368 3 c360 4 367 4 382 25 13 18 13 24 1 42 -13 19 -25 20 -292 25 l-279 5
115 56 c115 56 217 95 320 123 30 8 96 27 147 40 111 31 244 54 413 71 160 16
258 17 395 5z m1275 -443 l64 -47 -502 0 c-482 0 -503 1 -521 19 -24 24 -17
59 13 72 12 5 200 8 452 6 l430 -4 64 -46z m-2589 -337 c26 -14 25 -62 -2 -86
-22 -20 -87 -22 -634 -16 l-180 2 51 50 51 49 109 4 c280 8 586 6 605 -3z
m3025 -25 c20 -17 44 -41 52 -53 l14 -22 -379 0 c-369 0 -380 1 -398 20 -15
16 -17 26 -9 48 9 27 10 27 129 32 66 3 217 5 337 5 l216 0 38 -30z m-3618
-381 c35 -24 23 -89 -18 -94 -8 -2 -124 -2 -258 -1 l-243 1 12 23 c6 12 22 37
36 55 l24 32 212 0 c176 0 216 -3 235 -16z m3957 -36 c19 -29 35 -55 35 -58 0
-3 -127 -4 -282 -2 -244 2 -285 5 -300 19 -24 21 -23 48 2 73 19 19 33 20 265
20 l244 0 36 -52z m-1975 18 c63 -98 257 -341 361 -451 176 -187 382 -377 477
-440 60 -40 76 -65 58 -90 -13 -18 -16 -17 -77 12 -35 16 -102 59 -149 94 -47
35 -97 71 -110 80 -14 9 -67 53 -118 98 -110 96 -119 101 -171 101 -96 0 -109
-91 -31 -220 45 -74 46 -100 7 -108 -21 -4 -112 81 -169 157 -23 31 -65 80
-94 109 -47 47 -56 52 -96 52 -35 0 -50 -6 -69 -26 -23 -24 -24 -34 -27 -160
-3 -130 -4 -134 -29 -154 -32 -25 -47 -25 -71 0 -16 17 -20 42 -25 139 -7 160
-29 201 -109 201 -47 0 -79 -25 -153 -120 -124 -159 -187 -213 -230 -196 -23
9 -18 29 19 72 102 120 100 254 -5 254 -52 0 -71 -10 -149 -84 -87 -81 -275
-228 -347 -272 -68 -41 -108 -43 -108 -5 0 18 17 37 65 74 97 73 360 317 437
405 37 42 84 93 104 112 47 46 122 144 198 258 97 146 61 132 349 132 l247 0
15 -24z m-1049 -387 c9 -5 -186 -199 -319 -316 l-70 -63 -690 0 -690 0 33 93
33 92 423 3 c376 2 425 4 441 19 22 20 23 31 1 55 -15 17 -41 18 -420 18 -275
0 -403 3 -403 10 0 13 28 68 44 87 9 11 143 13 809 11 440 -2 803 -5 808 -9z
m3213 -1 c14 -15 46 -77 46 -90 0 -4 -274 -8 -608 -8 -628 0 -632 0 -632 -40
1 -46 -21 -45 652 -50 l632 -5 27 -80 c15 -44 28 -86 28 -92 1 -10 -144 -13
-690 -13 l-692 0 -81 66 c-80 65 -315 287 -330 312 -6 9 160 12 814 12 644 0
824 -3 834 -12z m177 -505 c5 -13 9 -29 9 -34 0 -5 -134 -9 -336 -9 -299 0
-339 -2 -365 -17 -36 -21 -37 -47 -4 -69 22 -14 60 -15 371 -9 380 8 364 11
364 -52 l0 -31 -172 -1 c-156 -2 -175 -4 -192 -21 -17 -16 -18 -23 -8 -45 l12
-25 185 0 c102 0 185 -4 185 -9 0 -5 3 -23 6 -40 l7 -31 -387 0 -387 0 -122
82 c-67 45 -134 89 -149 98 -24 13 -199 144 -281 210 l-31 25 585 5 c704 6
697 6 710 -27z m-3912 10 c-13 -10 -32 -22 -41 -28 -9 -5 -58 -42 -110 -81
-51 -39 -106 -79 -123 -90 -16 -10 -77 -52 -135 -92 -174 -122 -124 -112 -550
-112 l-370 0 0 34 c0 23 6 36 17 40 9 4 98 6 196 5 168 -1 180 0 200 19 19 20
19 22 3 46 l-16 26 -190 0 -190 0 0 28 c0 59 -13 57 373 57 379 0 387 1 387
50 0 41 -39 45 -396 45 -355 0 -341 -2 -328 48 l6 22 646 0 c616 0 644 -1 621
-17z m3971 -589 l0 -86 -47 7 c-86 12 -226 47 -308 77 -44 16 -113 41 -152 56
-40 14 -73 28 -73 31 0 3 130 5 290 3 l290 -3 0 -85z m-4796 62 c-108 -51
-312 -113 -466 -141 l-38 -7 0 85 0 85 278 1 277 1 -51 -24z m1936 -197 c25
-11 58 -32 73 -47 l28 -27 -2 -281 -3 -282 -26 16 c-14 9 -30 22 -37 28 -6 6
-44 15 -84 18 -77 8 -113 22 -140 52 -21 25 -30 62 -15 68 8 3 7 7 -2 14 -8 5
-18 28 -23 52 -23 103 59 181 121 115 27 -29 56 -32 82 -8 24 21 23 64 -2 91
-32 34 -120 56 -171 42 -59 -16 -143 -97 -159 -154 -12 -43 -13 -44 -45 -39
-81 13 -229 -58 -274 -131 -16 -26 -30 -36 -47 -36 -35 0 -74 -42 -74 -80 0
-27 3 -30 31 -30 47 0 93 -26 141 -81 23 -27 50 -49 59 -49 18 0 69 50 69 68
0 7 -18 32 -40 56 -45 49 -49 70 -17 107 33 40 67 57 123 64 57 8 86 -9 79
-46 -3 -15 2 -23 15 -26 11 -3 20 -9 20 -13 0 -15 92 -110 106 -110 8 0 14 -4
14 -10 0 -5 8 -10 18 -10 10 0 27 -7 39 -15 11 -8 43 -15 70 -16 65 -2 105
-20 138 -61 26 -33 27 -38 29 -171 0 -84 -3 -138 -9 -141 -5 -2 -46 -1 -90 2
-69 4 -84 8 -108 31 -30 28 -113 139 -123 165 -9 23 28 20 60 -5 36 -28 60
-22 64 18 8 83 -94 138 -197 107 -32 -10 -73 -12 -136 -8 -88 6 -91 5 -138
-25 -57 -37 -75 -70 -59 -106 10 -21 19 -25 53 -25 32 0 45 6 61 25 14 19 29
25 56 25 58 0 80 -10 101 -44 11 -17 32 -45 46 -61 60 -68 68 -65 -152 -65
-179 0 -201 2 -230 20 -37 22 -67 76 -78 138 l-7 42 -48 0 c-54 0 -60 -9 -60
-88 0 -49 9 -70 57 -129 65 -79 87 -86 265 -91 l158 -4 -29 -42 c-15 -22 -36
-57 -46 -76 -23 -46 -27 -48 -110 -55 -133 -13 -264 34 -350 126 -72 77 -90
125 -90 239 0 84 3 101 27 146 15 29 34 58 42 66 11 12 12 24 3 67 -13 66 3
141 43 204 33 52 56 70 136 102 53 22 57 26 74 75 10 29 33 68 51 86 41 41
130 74 197 74 45 0 51 3 81 40 35 44 95 86 151 106 57 21 187 17 240 -7z m655
-4 c22 -10 67 -46 100 -79 59 -59 61 -60 115 -61 66 0 156 -42 201 -92 30 -35
59 -94 59 -122 0 -10 19 -25 49 -39 66 -30 147 -105 177 -163 30 -60 41 -152
25 -214 -11 -45 -11 -48 20 -83 52 -58 73 -117 74 -198 0 -63 -4 -80 -36 -142
-28 -54 -34 -74 -26 -88 6 -10 10 -50 11 -89 0 -117 -57 -211 -156 -256 -52
-23 -60 -24 -379 -27 l-326 -3 -40 53 -39 53 25 42 26 42 277 1 c178 0 286 -4
301 -11 33 -15 101 5 126 38 22 27 27 77 12 102 -8 12 -15 11 -50 -3 -45 -17
-166 -22 -191 -6 -13 8 -12 10 1 15 9 3 49 51 89 105 41 55 78 100 84 100 5 0
20 -10 33 -22 22 -21 25 -21 57 -5 30 14 36 23 41 60 12 76 7 82 -56 82 -49 0
-62 4 -104 38 -70 54 -125 48 -125 -15 0 -15 9 -36 21 -47 l21 -20 -21 -29
c-11 -16 -32 -42 -45 -58 -14 -16 -59 -71 -101 -121 l-76 -93 -109 0 -110 0
62 78 c64 79 104 122 115 122 4 0 17 -10 30 -22 19 -18 27 -20 47 -10 38 17
53 78 38 151 -7 31 -12 67 -12 79 0 31 31 92 47 92 8 0 11 5 8 10 -3 6 3 10
14 10 12 0 21 5 21 10 0 6 15 19 33 30 36 23 106 26 157 9 38 -14 50 -3 50 47
0 39 -27 64 -78 71 -39 5 -40 7 -47 51 -4 26 -16 69 -26 98 -38 102 -205 227
-314 236 -35 3 -44 9 -75 52 -45 63 -105 96 -176 96 -61 0 -95 -11 -124 -40
-22 -22 -27 -69 -8 -88 17 -17 53 -15 68 3 8 9 30 15 57 15 35 0 49 -6 68 -26
25 -27 39 -75 33 -110 -3 -17 3 -18 74 -15 85 3 137 -14 195 -63 46 -39 93
-138 93 -197 0 -42 -3 -47 -26 -53 -41 -11 -129 -78 -117 -90 4 -3 2 -6 -4 -6
-16 0 -38 -81 -38 -142 0 -32 -1 -58 -3 -58 -2 0 -20 11 -40 25 -40 27 -63 31
-93 15 -26 -14 -25 -58 3 -87 l21 -22 -25 -38 c-30 -45 -118 -158 -151 -193
-13 -14 -43 -54 -67 -90 -24 -36 -44 -66 -45 -68 -2 -2 -32 18 -68 43 l-65 45
-4 83 c-2 45 -2 224 0 398 l3 317 51 -20 c44 -16 65 -18 154 -12 95 6 105 5
138 -16 20 -12 36 -25 36 -28 0 -4 9 -13 20 -20 16 -10 27 -9 55 2 39 17 41
24 20 65 -38 74 -151 126 -255 117 -107 -9 -119 -8 -170 20 l-50 27 0 178 c0
175 0 178 25 208 14 16 54 44 88 61 59 30 67 31 162 28 74 -2 111 -8 140 -23z
m-597 -1191 l42 -7 0 -83 0 -84 -121 0 c-97 0 -127 3 -150 17 -35 21 -58 11
-72 -31 -21 -64 40 -123 117 -112 176 25 253 17 365 -36 51 -24 88 -53 164
-131 82 -84 105 -114 142 -191 67 -137 75 -185 75 -441 l0 -220 -65 -13 c-35
-6 -69 -12 -74 -12 -5 0 -11 95 -13 223 -4 193 -7 231 -26 287 -65 196 -234
364 -383 378 -27 2 -77 -1 -112 -8 -89 -18 -141 -14 -202 14 -214 98 -216 354
-3 451 26 13 58 15 153 10 66 -2 139 -8 163 -11z m1072 -601 c-1 -36 -30 -99
-65 -141 -55 -66 -198 -119 -286 -107 l-46 6 -12 53 c-6 29 -30 88 -51 132
-22 43 -40 80 -40 81 0 2 113 3 250 3 l250 0 0 -27z"/>
</g>
</svg>
